<?xml version="1.0" encoding="utf-8"?>
<!-- Generator: Adobe Illustrator 21.1.0, SVG Export Plug-In . SVG Version: 6.00 Build 0)  -->
<svg version="1.1" id="Layer_1" xmlns="http://www.w3.org/2000/svg" xmlns:xlink="http://www.w3.org/1999/xlink" x="0px" y="0px"
	 viewBox="0 0 394.4 122.2" style="enable-background:new 0 0 394.4 122.2;" xml:space="preserve">
<style type="text/css">
	.st0{fill:#FFFFFF;}
</style>
<g id="Layer_2">
	<g id="_2">
		<path class="st0" d="M24.6,2.8c-16.1,0-22.7,37.5,9.1,37.5C82,40.3,84.1,0,69,0C28.4,0,40.7,101.8,11.6,101.8
			c-11.1,0-11.6-14.4-0.8-14.4c14.2,0,56.1,34.8,102.2,34.8c34.5,0,34.3-27.1,24.2-27.1c5.7,0,6.2,20.9-24.2,20.9
			c-49,0-79.2-33.6-101.7-33.6c-13.9,0-16.6,21.7,1.5,21.7c43.1,0,23.6-100.3,55.8-100.3c9.9,0,7.6,33.5-35.2,33.5
			C5.3,37.4,10.6,2.8,24.6,2.8z"/>
		<path class="st0" d="M68.1,57.4c8.1,0-12.6,28.9,1.3,28.9c15.4,0,18.8-35.2,8.1-35.2c-7.5,0-4.7,13.3,2.8,13.3
			c12.4,0,19.9-5.1,19.9-5.1v2.1c0,0-5.8,6.1-20.1,6.1c-15.2,0-18.1-19.8-2.4-19.8c16.9,0,11.6,41.9-9,41.9
			C47.2,89.7,55.9,57.4,68.1,57.4z"/>
		<path class="st0" d="M101.5,54.6c10.3,0-5.8,31.2,1.5,31.2c10.5,0,15.2-25.6,15.2-25.6l2.3,0.2c0,0-3.2,28.6-19.2,28.6
			C86.2,89,95,54.6,101.5,54.6z"/>
		<path class="st0" d="M123.9,86.5c-7.3,0,8.5-32-2.3-32c-6.5,0-14.8,35.2,0.6,35.2c22.4,0,29.4-46.4,13.5-46.4
			c-10.1,0-9.1,13.9,0.4,13.9c29.1,0-2.2,31.5,18.7,31.5c9.5,0,15-19.4,15-19.4l-1.6-4c0,0-6.1,20.5-12.4,20.5
			c-8.8,0,18.9-32.4-19.1-32.4c-5.8,0-5.2-7.3-1.6-7.3C147.8,46.1,138.1,86.5,123.9,86.5z"/>
		<path class="st0" d="M184.2,70.3c0,0,2.6-11.4-2.9-11.4c-9.2,0-14.9,27.4-6.6,27.4c13.2,0,17.7-35.3,17.7-35.3l1.5,5.3
			c0,0-2.1,33.5-18.8,33.5s-15.1-36.7,5.6-36.7C191.2,53.1,191.4,70.3,184.2,70.3z"/>
		<path class="st0" d="M200.2,28.4c-10.5,0-21.8,60.3-4.3,60.3c12,0,15.4-17.7,15.4-17.7l-3-1.6c0,0-4.3,16.8-10.5,16.8
			C183.5,86.3,208.3,28.4,200.2,28.4z"/>
		<path class="st0" d="M214.8,52.2c-6.5,0-12.3,36.6,1.8,36.6c15,0,16-17.8,16-17.8l-1.8-5.2c0,0-1.9,19.7-12,19.7
			C207.5,85.5,226.3,52.2,214.8,52.2z"/>
		<path class="st0" d="M235.9,51.4c-6.9,0-13.7,36.6,1,36.6c15,0,16-15.5,16-15.5l-1.7-7.5c0,0,0.9,20.6-11.9,20.6
			C229.4,85.6,247.4,51.4,235.9,51.4z"/>
		<path class="st0" d="M267.9,67.9c0,0,3.8-12.2-2.8-12.2c-10.8,0-12.6,27.1-5,27.1c14.5,0,19.5-32.8,19.5-32.8v8.7
			c0,0-4.8,28.2-19.8,28.2c-16.3,0-17.8-35.8,3.5-35.8C275.4,51,277,67.9,267.9,67.9z"/>
		<path class="st0" d="M281,26.1c-4.3,0-21,60.6-2.3,60.6c14.8,0,15.8-15.7,15.8-15.7l-0.2-4.6c0,0-4.8,18.1-13.5,18.1
			C268.9,84.5,293.6,26.1,281,26.1z"/>
		<path class="st0" d="M297,55.3c-12.6,0-15.9,31.2,2.3,31.2c22.9,0,22.7-38.8,9.8-38.8c-6.5,0-11,3.9-11,8.4
			c0,15.5,44.8,15.9,44.8-2.1c0-12.2-19.5-8.2-19.5,4.5c0,8.1,13.9,10,13.8,21.1c-0.1,7.5-15,10.1-15,3.1c0-14.3,46.2-9.5,46.2-32.5
			c0-12.2-20.2-6.7-20.2,5.2c0,13.7,15.4,13.9,15.4,23.1c0,9.7-14.2,14.1-14.2,4.4c0-8.8,11.6-11.1,23.9-11.1
			c27.6,0,23.5-27,14.3-27c7,0,11.8,25.4-14.8,25.4c-13.2,0-26.2,2.8-26.2,12.8c0,13.1,24.8,8.8,24.8-5.5
			c0-12.9-15.6-14.2-15.6-23.9c0-8.9,10-9.9,10-3.8c0,23.3-45.9,15.6-45.9,32.3c0,11.6,24.3,8.3,24.3-5.8s-13.5-11.7-13.2-19.9
			c0.4-9.4,10.2-9.9,10.2-2.3c0,14.7-37.6,15-37.6,2.3c0-2.8,1.8-5.1,5.6-5.1c9.6,0,6.8,31.2-8.1,31.2S304.5,55.3,297,55.3z"/>
	</g>
</g>
</svg>
